<?xml version="1.0" standalone="no"?>
<!DOCTYPE svg PUBLIC "-//W3C//DTD SVG 20010904//EN"
 "http://www.w3.org/TR/2001/REC-SVG-20010904/DTD/svg10.dtd">
<svg version="1.0" xmlns="http://www.w3.org/2000/svg"
 width="387.000000pt" height="645.000000pt" viewBox="0 0 387.000000 645.000000"
 preserveAspectRatio="xMidYMid meet">

<g transform="translate(0.000000,645.000000) scale(0.100000,-0.100000)"
fill="#000000" stroke="none">
<path d="M1786 4640 c-506 -58 -923 -342 -1139 -775 -113 -228 -174 -541 -148
-769 12 -111 53 -278 77 -313 17 -28 54 -31 54 -5 0 9 -9 49 -19 87 -15 57
-17 94 -13 203 2 73 7 131 9 128 3 -2 11 -53 19 -113 21 -167 60 -253 219
-493 56 -85 133 -202 171 -260 232 -356 608 -550 1066 -550 274 0 542 87 773
251 112 80 285 250 354 349 106 150 188 356 227 565 27 140 27 454 1 575 -55
256 -179 473 -391 686 -178 178 -348 282 -584 358 -205 66 -487 97 -676 76z
m494 -364 c120 -30 192 -62 294 -130 245 -164 425 -441 482 -742 22 -121 15
-347 -16 -454 -32 -113 -110 -265 -183 -355 -60 -73 -64 -81 -46 -89 17 -8 19
-18 17 -70 -3 -61 -3 -61 -45 -81 -23 -11 -59 -40 -79 -63 -46 -54 -68 -65
-247 -124 -207 -67 -326 -90 -472 -91 -243 -2 -416 66 -624 245 -50 43 -96 78
-102 78 -7 0 -21 -7 -31 -17 -16 -14 -18 -14 -18 -1 0 20 -50 78 -67 78 -6 0
-16 -8 -22 -17 -11 -21 -7 -26 -69 70 -84 128 -129 272 -147 466 -8 79 -16 96
-54 109 -37 13 -48 49 -34 111 78 341 135 501 220 627 171 251 478 422 853
474 105 14 283 4 390 -24z m-1100 -1896 c0 -5 -4 -10 -10 -10 -5 0 -10 5 -10
10 0 6 5 10 10 10 6 0 10 -4 10 -10z"/>
</g>
</svg>
